/* XPM */
static char *c3fe6f6aaa3b4d1bb68f8f7447c69befu5VjPPf3AjOqBQwi[] = {
/* columns rows colors chars-per-pixel */
"46 71 234 2 ",
"   c None",
".  c black",
"X  c #010100",
"o  c #020100",
"O  c #040201",
"+  c #050201",
"@  c #040301",
"#  c #050301",
"$  c #060301",
"%  c #070402",
"&  c #090502",
"*  c #0A0602",
"=  c #0B0602",
"-  c #0C0703",
";  c #0E0803",
":  c #100A04",
">  c #110A04",
",  c #110B04",
"<  c #120B04",
"1  c #120C04",
"2  c #140D05",
"3  c #150E06",
"4  c #160F06",
"5  c #1B1308",
"6  c #1D140A",
"7  c #1D150B",
"8  c #1F160A",
"9  c #20160A",
"0  c #20170A",
"q  c #21170A",
"w  c #21170B",
"e  c #22180B",
"r  c #23180C",
"t  c #24190C",
"y  c #271C0E",
"u  c #261C0F",
"i  c #2A1E0F",
"p  c #281E10",
"a  c #2B1F10",
"s  c #2A1F11",
"d  c #2C2112",
"f  c #2F2212",
"g  c #2F2312",
"h  c #2E2213",
"j  c #302312",
"k  c #302313",
"l  c #322413",
"z  c #392C19",
"x  c #3A2C1A",
"c  c #3C2D19",
"v  c #3D2D19",
"b  c #3C2E1B",
"n  c #3F2F1A",
"m  c #40311D",
"M  c #42311C",
"N  c #43321C",
"B  c #45341E",
"V  c #44341F",
"C  c #46341E",
"Z  c #46351E",
"A  c #47351E",
"S  c #47351F",
"D  c #48361F",
"F  c #49361F",
"G  c #483822",
"H  c #4A3922",
"J  c #4C3921",
"K  c #4C3A23",
"L  c #4E3B22",
"P  c #4E3B23",
"I  c #4F3B23",
"U  c #4F3C23",
"Y  c #4B3B24",
"T  c #4C3B24",
"R  c #4C3B25",
"E  c #4D3C25",
"W  c #4E3C25",
"Q  c #4E3D25",
"!  c #4F3D26",
"~  c #4F3E26",
"^  c #513D24",
"/  c #523E24",
"(  c #533F25",
")  c #503E26",
"_  c #513E26",
"`  c #513F26",
"'  c #513F27",
"]  c #523F27",
"[  c #524027",
"{  c #534027",
"}  c #544026",
"|  c #584225",
" . c #534028",
".. c #534128",
"X. c #544128",
"o. c #554128",
"O. c #554228",
"+. c #554229",
"@. c #564229",
"#. c #564329",
"$. c #574329",
"%. c #57432A",
"&. c #57442A",
"*. c #594429",
"=. c #5A4428",
"-. c #5B4528",
";. c #58442A",
":. c #59452A",
">. c #5A462B",
",. c #5B462B",
"<. c #5C472B",
"1. c #5E472A",
"2. c #5C472C",
"3. c #5D472C",
"4. c #5E482B",
"5. c #5D482C",
"6. c #5E482C",
"7. c #5E482D",
"8. c #5E492D",
"9. c #5F492D",
"0. c #60492C",
"q. c #614A2D",
"w. c #624A2D",
"e. c #624B2D",
"r. c #634B2D",
"t. c #614B2E",
"y. c #624B2E",
"u. c #624C2E",
"i. c #634C2E",
"p. c #634C2F",
"a. c #644C2C",
"s. c #644C2E",
"d. c #644D2F",
"f. c #654D2F",
"g. c #664E2F",
"h. c #654D30",
"j. c #654E30",
"k. c #664E30",
"l. c #664F30",
"z. c #674F31",
"x. c #684F30",
"c. c #675031",
"v. c #695030",
"b. c #685031",
"n. c #6A5131",
"m. c #6A5132",
"M. c #6B5232",
"N. c #6C5232",
"B. c #6D5433",
"V. c #6E5433",
"C. c #6F5533",
"Z. c #6E5534",
"A. c #6F5534",
"S. c #705534",
"D. c #705635",
"F. c #715635",
"G. c #715735",
"H. c #725735",
"J. c #715736",
"K. c #725736",
"L. c #735835",
"P. c #725836",
"I. c #735836",
"U. c #735936",
"Y. c #745936",
"T. c #745937",
"R. c #755937",
"E. c #755A36",
"W. c #755A37",
"Q. c #765A37",
"!. c #765B37",
"~. c #765A38",
"^. c #765B38",
"/. c #775B38",
"(. c #775C38",
"). c #785C38",
"_. c #785C39",
"`. c #795D39",
"'. c #7A5D39",
"]. c #7A5E39",
"[. c #7A5E3A",
"{. c #7B5E3A",
"}. c #7B5F3A",
"|. c #7C5F3A",
" X c #7C5F3B",
".X c #7C603B",
"XX c #7D603B",
"oX c #7E603B",
"OX c #7E613B",
"+X c #7E613C",
"@X c #7F613C",
"#X c #7F623C",
"$X c #85653B",
"%X c #80623C",
"&X c #80633C",
"*X c #80623D",
"=X c #80633D",
"-X c #81633D",
";X c #81643D",
":X c #82643D",
">X c #82653D",
",X c #83653D",
"<X c #82643E",
"1X c #83643E",
"2X c #83653E",
"3X c #85653C",
"4X c #86663C",
"5X c #84663E",
"6X c #84663F",
"7X c #85663F",
"8X c #86673F",
"9X c #8A693E",
"0X c #8B6A3F",
"qX c #876940",
"wX c #8E6C40",
"eX c #8F6D41",
"rX c #8D6C42",
"tX c #8E6D43",
"yX c #8F6E43",
"uX c #906E41",
"iX c #906F44",
"pX c #916F44",
"aX c #927045",
"sX c #947246",
"dX c #9C784A",
"fX c #D5A364",
"gX c #D5A464",
"hX c #D6A464",
"jX c #D6A465",
"kX c #D7A565",
"lX c #DAA767",
"zX c #DDAA68",
"xX c #DEAC69",
"cX c #E0AC6A",
/* pixels */
"                                                                                            ",
"                                                                                            ",
"                                                                                            ",
"      ; . . . . . . . . . . . . . . . . . . . . . . . . . . . . . . . . . . . . . . :       ",
"      . | 9X3X3X4X4X$X$X3X$X$X3X3X4X4X$X$X$X3X3X3X4X4X4X4X4X4X4X4X4X3X$X4X4X4X$X0X| .       ",
"      . eXxXfXkXkXkXkXlXlXkXkXlXkXkXlXkXlXkXlXkXkXlXkXkXkXkXkXkXkXkXkXlXkXkXkXkXcX0X.       ",
"      . 1.sXiXaXaXaXaXaXaXaXaXaXsXaXaXaXaXaXsXsXaXaXaXaXaXaXaXaXaXaXaXaXaXaXiXeXeX>..       ",
"      . P .Xk.s.k.s.k.s.k.s.s.s.s.k.s.s.s.s.s.s.s.s.s.k.s.k.s.k.k.s.s.k.s.p.Z..XdXs..       ",
"      . ` 5Xi . . . . . . . . . . . . . . . . . . . . . . . . . . . . . . . q.iXlX0X.       ",
"      . ^ 5Xi c G.B.B.B.S.S.S.B.Z.Z.Z.B.B.G.B.B.S.B.S.B.S.S.B.B.B.S.B.G.q.. p.eXkX9X.       ",
"      . ^ 5X6 D 5X%X#X`.`.`.`.`.(.(..X(.`.`.`.`.`.`.`.`.`.`.`.`.`.`.`.5XT.. p.yXkX0X.       ",
"      . ^ 5Xw C #X.XG.! ` ` [ [ ! [ [ [ [ [ [ [ [ [ ! [ [ [ [ [ ` ` ! I.G.. p.eXkX0X.       ",
"      . ^ 3Xw C %X.X~.] O. .O. .O. .O. . .O. . .[ O. .O. .O. . . .O.! (.I.. p.eXkX9X.       ",
"      . ` 3Xw C 5X#XI.] O.O.O.O.O.O.O.O.O.O.O.[ &.} O.O.} &.O.O. .O.` ~.I.. p.yXfXwX.       ",
"      . ^ 1Xw C #X#XT.` O.] ` ! [ Y Y [ [ [ ! [ [ ! ! [ ! !  . .O.O.` ~.I.. q.eXfXwX.       ",
"      . ` 5Xw G %X XI.! O.>.Z.Z.Z.Z.Z.Z.B.B.Z.Z.B.Z.Z.B.Z.Z.k. . .O.! ~.I.. p.eXkXwX.       ",
"      . ` 5Xw M |.|.T.O.O.9.#X#X`.#X#X X#X X X#X X X#X X XqXI.! O.O.! (.I.. p.yXfX9X.       ",
"      . ^ 5Xj . 2 T.5X|.9.,.#Xh. .O.O.O.O.O.O.O.@.@.@.@. .~.I.! O.O.! ~.I.. p.yXkXwX.       ",
"      . ` %Xj . . P b.%X9.,.%Xh.!  . . .] ] ] ] ] +.] ] ] `.T.! O.O.! (.I.. q.eXfXwX.       ",
"      . ^ 5Xf . 2 . c %X3.,.%Xk.] O.O. .@.O.O.O.] @.@.O.] [.I.] O.O.` ~.I.. p.yXfXwX.       ",
"      . ^ 5Xf . 1 . c 5X9.>.5Xp.! O. .O.@.O.] @.O.] O.O.] `.G.` O.O.` ~.I.. q.yXfXqX.       ",
"      . / 3Xf . # N q.%X9.>.#Xp.] O.O. .] @.O. .O.] O.] ] |.K.` O.] ` ~.I.. p.eXfXwX.       ",
"      . ` 5Xj . . I.5X#X9.>.%Xk.! O. .O. .O. .O.O.O.] O.] |.G.` O.] ` ~.I.. q.yXfXwX.       ",
"      . ^ 3Xt c ~.`.T.>. .4.%Xp.! O.O. .O. .O. .] O.O.O.] |.G.` O.O.` ~.I.. q.yXfXwX.       ",
"      . ^ 5Xw D 5X%XT.` ] 9.%Xp.] O. .O.O. .O. .O. .O. .O.`.I.` O.O.` ~.G.. p.iXfXwX.       ",
"      . ^ 5Xw B .X.XT.[ ` 9.%Xk.! O.O. . .O. .O. .O. .O.` |.I.` O.O.` ~.K.. q.eXfXwX.       ",
"      . ^ 3Xw C ,X.XT.[ ` 3.%Xp.! O. .O.O. .O. .O. .O. .] `.G.! O.@.` ~.T.. q.iXfXwX.       ",
"      . ^ ,X9 C %X.XT.[ ` 9.%Xp.] O.O. . .O. .O. .O. .O.O.`.I.` O.] ` ~.G.. q.iXfXwX.       ",
"      . ` 3Xw C %X%XT.[ ` 9.%Xk.]  . . .O. .O. .O. .O. . .`.T.` O.O.` (.T.. q.iXkXwX.       ",
"      . ` 5Xw C 5X.XT.[ ` 4.#Xh.!  .[  .[ [ `  .`  . .] [ `.G.! O.O.! ~.I.. q.iXfX9X.       ",
"      . ^ 5Xw C %X.XT.[ ] 3.%Xc.&.2.,.,.>.>.1.,.,.,.,.,.>.`.G.` O.O.` ~.I.. q.iXfXwX.       ",
"      . ^ 3Xw C %X%XT.} ] q.%X#X#X#X#X#X%X#X#X#X#X#X#X#X#X5XI.` O.] ` T.I.. w.iXkX0X.       ",
"      . ^ 5Xw C #X#XT.]  .&.b.k.c.c.c.c.c.c.c.c.c.c.c.c.k.c.q. .O.O.! ~.I.. q.iXfXwX.       ",
"      . ^ $Xw C %X#XT.] O.] ] ] ! ] ! ! ` ! ` ` ! ! ] ! ] ! ]  .] O.` ~.I.. p.eXfXwX.       ",
"      . ^ 3Xw N qX[.T.! O. .O.O.O.@.@.@.O.O.O.O.&. .O.O.O.&.>.O.@.O.` ~.I.. q.eXfXwX.       ",
"      . ` 5Xw C #X#XT.] O.O.] O. . . . . .]  .}  . . . . .N b b x G ` ~.I.. p.yXfXwX.       ",
"      . ^ 5Xw C %X#XT.]  .O.O.&.&.&.&.O.O.>.O.&.&.&.&. . .2 . . . u ` (.I.. p.eXfXwX.       ",
"      . ` 5Xw C %X#XT.]  .3.`.`.`.`.`.`.`.|.`.`.`.`..Xq.. < # # # < . S.T.. p.eXfXwX.       ",
"      . ^ 3X6 C #X#XT.] ] 9.#X#X.X#X#X#X#X.X%X.X.X.X5Xq.. * . . . # . S.T.. p.eXfXwX.       ",
"      . ` 3Xw G #X#XT.] ] 9. X[.`.#X[..X|.|.|.|..X.X%Xp.. - . . . * . B.T.. p.eXfXwX.       ",
"      . ` 5Xw C %X#X~.] ] 9.#X#X#X#X#X#X#X#X#X#X#X XqXq.. * . . . # . B.T.. q.eXkX9X.       ",
"      . ^ 3Xw C %X XT.]  .,.I.I.I.G.I.G.J.J.J.J.I.G.I.3.u 2 . # . 6 u G.T.. p.eXkXwX.       ",
"      . ^ 5Xw C qX[.T.]  . .` ! ] ` ! ` ` ` ! ] ! ] ] ] @.6 . . . p O.~.I.. p.yXfX9X.       ",
"      . ^ 5Xw C #X#XT.] O. .O.O. .O.O.O.O.O.O. .O.O.O.O. .R H H b.b.! ).I.. p.eXkXwX.       ",
"      . ^ 5Xw B %X#X~.! O. .] O.@.] O. . .O.] O. . .O. .O.O.O. .|.`.R ).I.. p.eXfXwX.       ",
"      . ^ 3Xw B %X XI.] O.O.@.@.O.O.O.O.O.O.] O.O.O.O.O.O.O. .] ).T.R ~.I.. p.yXfXwX.       ",
"      . ^ 5Xw C qX[.~.! ] @.] ] ] ] ] ] ] ] ] ] ] ] ] ] ] ] ] ] ).~.R ).I.. q.eXfXqX.       ",
"      . ^ $X9 C #X#XT.] O.@.2.2.2.,.3.,.3.3.3.3.7.,.3.,.,.9.,.] ).~.R ~.I.. p.eXfXwX.       ",
"      . ^ 5Xw B %X.XT.[ ` 9.#X#X#X%X%X#X%X%X#X#X%X%X%X#X X%XI.! `.~.R (.I.. p.yXfXwX.       ",
"      . ^ 5X6 D 5X%XT.[ ` q.#XB.k.k.k.c.c.k.c.k.k.c.k.G.#X XI.R ).~.R ~.I.. p.yXfXwX.       ",
"      . ^ 5Xr N `..XT.` ] 3.%Xq.Y ] ! ] ! ` ! ` ! ] Y k.#X#XZ.! ).~.Y ~.I.. q.eXfXwX.       ",
"      . ^ 5Xf . . T.`.` ] 3.#Xk.] O.O.O.O.O.O.O.O.O.] k.#X#XG.! ).~.! ~.I.. p.yXfXwX.       ",
"      . ` 5Xj . . ^ @.O.] 9.%Xk.] O. . .O. .O.O. .O.! k.#X#XI.R ).~.R ~.I.. q.yXfXqX.       ",
"      . ^ %Xf . < . 7 ;.` 3.%Xp.! O. .O. .@.] ]  .O.] c.#X#XI.! ).~.! ~.I.. p.eXfXwX.       ",
"      . ^ ,Xf . * . k @.` 9.%Xs.! O.O. .O. .O.O.O.O.` k.#X%XI.R ~.~.Y ~.I.. q.yXfXwX.       ",
"      . } ,Xf . * . p O.` 3.#Xk.] O. .O. .O.] O. .O.! c. X%XI.R [.~.! ~.I.. q.yXfXwX.       ",
"      . ` %Xf . 2 . d O.` 3.%Xk.! O.O. .O. .] O. .O.] k.#X#XG.! ~.~.Y ~.T.. q.iXfXwX.       ",
"      . ^ 5Xj . . b.G.] ] 9.%Xp.` O. .O. .O.O.O. .O.] x.#X.XG.! [.~.! ~.I.. q.yXfXwX.       ",
"      . ^ 3Xi t P ~.(.` ` 4.%Xs.` O. . .O.O.O.] O.O.` x. X%XG.! ~.~.Y (.T.. q.iXfXwX.       ",
"      . ` 5Xw B 3X#XI. .] 9.#Xp.! [ [  .` ` ] ] ] ] R k. X#XG.! `.~.R ~.I.. q.iXfXwX.       ",
"      . ^ 5Xw C #X.XI. .] 9.#X`.(.(.(.(.(.(.`.(.`.~.(.`.#X%XT.! `.(.R (.I.. q.iXfXwX.       ",
"      . ` 5Xw C 5X#XT.`  .3.~.~.T.(.~.~.~.~.(.I.~.~.~.~.T.~.b.` G.B.! ~.I.. q.eXfXwX.       ",
"      . ^ 3Xw B #X.XT. .O. .` ] [ !  .! ` ] !  .] ` [ ` [ ` [ O.[  .! (.I.. p.eXfXwX.       ",
"      . ` 3Xw B 5X.XI.!  .` [  .[ [ [ [ [  .[ [  .[ [  .[ [ [ ` [ [ ! (.I.. p.eXfXwX.       ",
"      . ` %Xe B %X.XT.>.,.3.3.,.3.,.3.,.3.3.3.,.3.,.1.,.,.3.,.3.1.3.>.~.G.. q.iXfX9X.       ",
"      . ( 9Xw G 3X%X3X5X%X5X5X%X%X5X%X5X%X5X5X%X5X5X5X%X5X%X%X5X5X%X#X5XT.. s.aXzXeX.       ",
"      . j ` : i ` P ^ ^ P P P ^ ^ P ! P P P ^ P P P P ^ ^ R R ^ P ^ P ` D . c 1.9X| .       ",
"      # . . . . . . . . . . . . . . . . . . . . . . . . . . . . . . . . . # . . . . ;       ",
"                                                                                            ",
"                                                                                            ",
"                                                                                            "
};
