/* XPM */
static char *collectable1656364477[] = {
/* columns rows colors chars-per-pixel */
"61 61 78 1 ",
"  c None",
". c #000000",
"X c #080700",
"o c #0C0B01",
"O c #100E01",
"+ c #141201",
"@ c #191602",
"# c #1D1A02",
"$ c #211E02",
"% c #252103",
"& c #2B2503",
"* c #2E2A04",
"= c #312D05",
"- c #30260A",
"; c #353105",
": c #3A3306",
"> c #3C330C",
", c #433B0B",
"< c #474109",
"1 c #4C450B",
"2 c #534C0D",
"3 c #5A520F",
"4 c #4F4510",
"5 c #5E5411",
"6 c #675D0F",
"7 c #635B12",
"8 c #6A6114",
"9 c #6E6518",
"0 c #736917",
"q c #786E1B",
"w c #7D7319",
"e c #81761C",
"r c #84791D",
"t c #897E1B",
"y c #8D811C",
"u c #92851E",
"i c #968A1F",
"p c #958821",
"a c #9A8E21",
"s c #9F9222",
"d c #A29622",
"f c #A79A25",
"g c #A99B25",
"h c #A89B28",
"j c #AEA226",
"k c #B2A526",
"l c #B7A829",
"z c #BCAD2B",
"x c #BEB02B",
"c c #C5B52C",
"v c #CBBC2E",
"b c #C6BB30",
"n c #CCBF30",
"m c #CFC02F",
"M c #CEC131",
"N c #D6C532",
"B c #D6C933",
"V c #DCCB33",
"C c #DDD035",
"Z c #E0CE33",
"A c #E4D335",
"S c #E9D636",
"D c #ECDA37",
"F c #E5D638",
"G c #E9D738",
"H c #EEDB38",
"J c #F0DD37",
"K c #F1DE39",
"L c #F5E239",
"P c #FAE63A",
"I c #FFEB3B",
"U c #FFF43D",
"Y c #FFFB3E",
"T c #FFEE44",
"R c #FFEE4B",
"E c #FFF641",
"W c #FFFF40",
"Q c #FFF44B",
/* pixels */
"                                                             ",
"                                                             ",
"                          QRTETRTRQ                          ",
"                      QTEYYYUIIUUUYYEEQ                      ",
"                   REWYIIIIIIIIIIIIIIIYYEQ                   ",
"                 QUYIIIIIIIIIIIIUIIIIIIIIYEQ                 ",
"               QEUIIIIIIIIIIIIIIIIIIIIIIIIIUEQ               ",
"              EYIIIIIIIIIIIIIIIIIIIIIIIIIIIIIYE              ",
"             EUIIIIIIIIIIIIIIIIIIIIIIIIIIIIIIIUER            ",
"           QYIIIIIIIIIIIIIIUIIIIIUIIIIIIIIIIIIIUWQ           ",
"          QYIIIIIIIUIIIIIIIIIIIIIIIIIIIIIIIIIIIIIWQ          ",
"         QYIIIIIIIIIIIIIIIIIIIIIIIIIIIIIIIIIIIIIIIWQ         ",
"         WIIIIIIIIIIIIIIIIIIIIIIIIIIIIIIIIIIIIIIIIIWQ        ",
"        YIIIIIIIIIIIIIIIIUIIIIIIIIIIIIIIIIIIIIIIIIIIU        ",
"       EUIIIIIIIIIIIIIIIIIIIIIIIIIIIIIIIIIIIIIIIIIIIUE       ",
"      TYIIIIIIIIIIIIIIIIIIIIIIIIIIIIIIIIIUIIIIIIIIIIIYE      ",
"      EIIIIIIIIIIIIIIIIIIIIIIIIIIIIIIIIIIIIIIIIIIIIIIIU      ",
"     EYIIIIIIIIIIIIIIIIIIIIIIIIIIIIIIIIIIIIIIIIIIIIIIIYE     ",
"     UIIIIIIIIIIIIIIIIIIIIIIIIIIIIIIIIIIIIIIIIIIIIIIIIIY     ",
"    IYIIIIIIIIIIIIIIIUIIIIIIIIIIIIIIIIIUIIIIIIIIIIIIIIIYI    ",
"    UIIIIIIIIIIIIITUIHIIIIIPBPIUNLIIIIIKPEUIIIIIIIIIIIIIE    ",
"    WIIIUIIIIIIIUUFxwhPIIIIUubEC0KIIIPUnrxFTUIIIIIIIIIIIY    ",
"   EWIIIIIIIIPUPnr>.&CHPIIIUy-e47GKPIIII7.,rnPUIIIIIIIIIYU   ",
"   UIIIIIIIIIUBw..@.yHFGPIIP0...2GKKIIPUk.#..9MIUIIIIIIIIU   ",
"   YIIIIIIIIIh..##$.aKGGDPIJ:.%+#VLKKIPUx.$##..pLIIIIIIIIY   ",
"   EIIIIIIIPe.%#..@.eKGGGSUv.#.#.lPGGKPUd.$..+&.5HUPIIIIIY   ",
"  UYIIIIIIIt.;.....+.zLKJLG8.@.+.2FPPLIF:.+....=.5KIIIIIIEU  ",
"  IYIIIIPUl.*......O.oanNv0.@...@.7cVVz1.@......*.pUIIIIIUI  ",
"  IUIIIIUG*.X.......+...+..+.....@..Oo..+........$.VUIIIIUI  ",
"  IUIIIIUz.%.........X#+.+@.......+#X.#+.........$.gIIIIIUI  ",
"  IIIIIIIy.$.....................................$.ePLIIIUI  ",
"  IUIIIIIt.$.....................................#.wPPPIIUI  ",
"  IYIIIIUg.%.....##+....X#O.......+#O....+$%oX...%.iIPPPIUI  ",
"  IYIIIIUB.@....O...#o.+o..#.....#...@.X#........#.mIPPPIYI  ",
"  IYIIIIIIw.%..X.wt5..%.=e2.$...%.3u1.&..2dd,.O.%.rPPPPIPYU  ",
"   YIIIIIIS&.%#.hKKSc2.8VLSa.%.%.uHPSw.%kJPUc.#%.2DPPPPPPUU  ",
"   UIIIIIIUN..**NLGKLZyAPDLPt.*.wPPJIDyNIPLPF<$.2AIPPPPPIU   ",
"   UIIIIIIIUV3..nLGKHLLKKJHLF1.:APJLLLPPLLLIA;.eDIPPPPIIII   ",
"   YYIIIIIIPULs.aLGHKHJKKKKKPl.gPKLLLLLLLPLIc$zPIPPPPIIPUU   ",
"    WIIIIIIIIIINgGKHKKKHKKKKPS2ZPKLLLLLPLLLLcAUPPIPPPIPIW    ",
"    UIIIIIIIIIIILGKKKKHLKKKKJLvJLLLLLLPLPPLPIILPPPPIPIIPU    ",
"    IYIIIIIIIIIIPKHKHKKKKKLKLLLLLLLLPPLLLPPPPLIPIPIPPIIUI    ",
"     EIIIIIIIIIIIPHKKKKLLKJPLLLLLLLPLPPPPPPPPPPPIPPIIIIY     ",
"     UYIIIIIIIIIIIPLLKLHKLLJLLLLLPLLPLLPPPPPPPPIPPIIIPUI     ",
"      UIIUIIIIIIIIIPKKKLLLLKLLLLLPLPPPPPPPPPIPIPPIPPIIE      ",
"      IWIIIIIIIIIIIIPKKKKLLLLLLLPLLLPPPPPPPPPPPIIIIIIYU      ",
"       YUIIIIIIIIIIIIIKLLKLLLLLLLLPPPPPPPPPPIPIPIPIIIU       ",
"        UIIIIIIIIIIIIIPLKLLLLLPLPPLPPPPPPPPIPPIIPIIIY        ",
"        IWIIIIIIIIIIIIIPLLLLLPLPLPPLPPPPPPIPIPPIIIIYU        ",
"         UWIIIIIIIIIIUIIPLLLLLLPPPPPPPPPIPPIPIIIIPWU         ",
"          UWIIIIIIIIIIIIIILPPLPLPPPPPPPPPPPIIPIIPYY          ",
"           YWIIIIIIIIIIIIIPLLPPPLPPPPIPPIPIPIIIIYY           ",
"            IUUIIIIIIIIIIIIILPPPPPIPPPIPPIIIIIIYI            ",
"              UYIIIIIIIIIIIIPLPPPPPPIPPIIPPIIWU              ",
"               IYUIIIIIIIIIIIIPPPPPPIPIPIIPYUI               ",
"                 UYYIIIIIIIIIIIPPIPIPIPIIUYI                 ",
"                   IUWYIIIIIIIIPPPPPPIUYUU                   ",
"                      UIYYEUUUUUUUYYYIU                      ",
"                         UIIIIIIIIPI                         ",
"                                                             ",
"                                                             "
};
