/* XPM */
static char *batman_PNG1151656364351[] = {
/* columns rows colors chars-per-pixel */
"61 61 83 1 ",
"  c None",
". c #040304",
"X c #090707",
"o c #0C0906",
"O c #060709",
"+ c #080709",
"@ c #070809",
"# c #0B0B0C",
"$ c #130E07",
"% c #110F0F",
"& c #11120E",
"* c #19150F",
"= c #1F180C",
"- c #0D0E10",
"; c #100F10",
": c #0E1113",
"> c #131314",
", c #191717",
"< c #1C1A15",
"1 c #141619",
"2 c #181718",
"3 c #15191B",
"4 c #1A1B1C",
"5 c #20190E",
"6 c #261F15",
"7 c #281F13",
"8 c #35290D",
"9 c #2F2514",
"0 c #26221C",
"q c #2D2418",
"w c #352A14",
"e c #352A1A",
"r c #3E311C",
"t c #151C22",
"y c #1D1E21",
"u c #1E2124",
"i c #1E242B",
"p c #222324",
"a c #2F2624",
"s c #2E2925",
"d c #24262A",
"f c #26292C",
"g c #292B2C",
"h c #332D26",
"j c #3E2F24",
"k c #342F29",
"l c #222830",
"z c #2B2E32",
"x c #2D3134",
"c c #2F353A",
"v c #313335",
"b c #3E3836",
"n c #31353A",
"m c #35393C",
"M c #393B3E",
"N c #4B3D26",
"B c #41342A",
"V c #493E2F",
"C c #433B36",
"Z c #494031",
"A c #544834",
"S c #343B41",
"D c #3B3F42",
"F c #3E4245",
"G c #3E464E",
"H c #414347",
"J c #43464A",
"K c #444A4E",
"L c #4B4F52",
"P c #465058",
"I c #4F575E",
"U c #505457",
"Y c #53575A",
"T c #685746",
"R c #67604F",
"E c #5F656C",
"W c #646A6E",
"Q c #666D73",
"! c #696F76",
"~ c #6C7277",
"^ c #6E7378",
"/ c #836A57",
"( c #9AA3AB",
/* pixels */
"                                                             ",
"                                                             ",
"                                                             ",
"                                                             ",
"                                                             ",
"                                          yy 1               ",
"                                          ypy1               ",
"                                          oGn>               ",
"                                          2Pxo               ",
"                                          tmy2               ",
"                                          abx2               ",
"                                         .j/C                ",
"                                       442&TB                ",
"                                    mzp4;;#.o>2              ",
"                                   SSzi2DHzpvv6>             ",
"                                 #dSSd.Q!HgvvJl>:            ",
"                               #@@iccy.E(U.y&y,%#            ",
"                              2o@--3....~!Ff>#4do            ",
"                            ,>#.:..OO..24Dmg44g4#            ",
"                           ,>O.::....O@1gdsmmgg-1            ",
"                         >>#....@.....#:pxzzg44#1            ",
"                        >,#............-,>2fp,>.:            ",
"                       >,O.............#>:3d>>#.O            ",
"                     >>>...............OydDKdd2.->>          ",
"                    ,,%...O...........$qxKczuu>.#31:2        ",
"                   2>o................orARZsk00=O-:33:li:    ",
"                  2>O.................o=w89eNe9O OOO@3i3:    ",
"                 2#...................ohVh70<*o.    #  3     ",
"               2,#..O.................oiILpgd2,,.            ",
"              2>o....................O.JQx4gg24v4            ",
"             ,#O....O...............O.uWU.ppg#gDx            ",
"           22#....O...................m~M.>>%XdHm            ",
"          ,>X.......O..............X.:GWfo@..-dmF4           ",
"        >,>.....O............O.....O.4KY>#o@.@uxmp           ",
"       ,; O.....O....................uJD:@O#.O#nxp           ",
"     >>   ....O................X...O.fHz>Oo>.o.DFp           ",
"    >    X..O...............O......O.fFd,O#>#@.xKd3          ",
"         .....O......................fnp3O>%#@.yKf>          ",
"        o............................fxz3o>>:#.:FlO          ",
"         XOX.........................4dl3->>##@-pSz          ",
"                O..................O.ucu;>>##%#.yKz          ",
"                  ......O............mF3o>;;;#oO4xu          ",
"                   ................O3xf2#;#;-#oo#.>          ",
"                   X...............4d>2#>>>&-##@#-O          ",
"                    .....O.  OO....pp-O#>>&>;%o--->;         ",
"                    ...O        ..O4p-.#>#%###o>->3;         ",
"                    O             OX-o.#>#@OXOOoO##O         ",
"                                   oO..%>o@..  OO@@O         ",
"                                   oO.O#oOO    o#@@@         ",
"                                   #.. #O       O@#          ",
"                                   #OO          O#o          ",
"                                   #OO          ##@          ",
"                                   -@O          O@#          ",
"                                   :#.          @-+          ",
"                                   >#.          21@          ",
"                                  yu#           -::          ",
"                                  4iO           .-:-         ",
"                                                @@#dy        ",
"                                                  #:-O       ",
"                                                             ",
"                                                             "
};
