/* XPM */
static char *diego_lopez_groundtile21656364086[] = {
/* columns rows colors chars-per-pixel */
"67 67 96 2 ",
"   c #0B0602",
".  c #201B17",
"X  c #241F1B",
"o  c #26211E",
"O  c #29261D",
"+  c #2B2622",
"@  c #2D2924",
"#  c #2C2628",
"$  c #2F2C2C",
"%  c #312E27",
"&  c #322E2C",
"*  c #35322D",
"=  c #39362D",
"-  c #36382A",
";  c #3C392D",
":  c #363331",
">  c #393532",
",  c #3D3A34",
"<  c #3E3B39",
"1  c #403D2E",
"2  c #413E35",
"3  c #423E39",
"4  c #444136",
"5  c #45423C",
"6  c #49453C",
"7  c #4E493D",
"8  c #524D3E",
"9  c #464441",
"0  c #494642",
"q  c #4D4A43",
"w  c #4B4A48",
"e  c #514E46",
"r  c #524E49",
"t  c #555245",
"y  c #5A5546",
"u  c #575846",
"i  c #5C5947",
"p  c #55534A",
"a  c #5A564B",
"s  c #575848",
"d  c #5D5A4C",
"f  c #575651",
"g  c #5C5751",
"h  c #5E5B51",
"j  c #625D4D",
"k  c #625E52",
"l  c #645F59",
"z  c #5F6052",
"x  c #65614E",
"c  c #68624F",
"v  c #656253",
"b  c #6B6554",
"n  c #6E6956",
"m  c #65635A",
"M  c #6B655A",
"N  c #67685A",
"B  c #6E695A",
"V  c #706756",
"C  c #716A57",
"Z  c #706758",
"A  c #726C5A",
"S  c #727057",
"D  c #76715D",
"F  c #78725E",
"G  c #6A6762",
"H  c #6F6C61",
"J  c #726D61",
"K  c #767162",
"L  c #7A7562",
"P  c #7E7A65",
"I  c #777569",
"U  c #7B766A",
"Y  c #7E7B6B",
"T  c #807B65",
"R  c #827E6A",
"E  c #817D71",
"W  c #7E806B",
"Q  c #868267",
"!  c #85826C",
"~  c #89846E",
"^  c #88886C",
"/  c #868373",
"(  c #8A8672",
")  c #878974",
"_  c #8D8A74",
"`  c #868779",
"'  c #8A8679",
"]  c #8D8A79",
"[  c #918C75",
"{  c #928E7A",
"}  c #929275",
"|  c #94917B",
" . c #98957F",
".. c #979879",
"X. c #928E82",
"o. c #929384",
/* pixels */
"^ _ | { { | _ ( [ | ( { A 2   > H ` o.} ^ | | [ [ { { [ {  .E A 1 l E E T T [ [ { [ | | | | _ E y 1 t V R  .{ { | | | } } } } ..E r . ",
") ( ^ Y ! ) ~ ~ ~ [ ^ ^ L e . 2 h I ~ Q ! ~ ~ ^ ~ ~ ~ ~ E _ R D 7 Z ' T A A R R ~ R R R ~ ( ~ L d e j A R ( ~ ~ ~ R Y R Q W Q Q J e X ",
"{ ^ L n S P F F L F T T D l 3 3 t x C S F L F F P F L F L T L A j T ' T V j Z T T D A A F L F b b k C L T F T K A n b B S N N n l 0 # ",
"{ W n i c S C n C V A A Z J k 3 7 i x n S C n S D C A A A A D C D T E T j y j k V b j j b V b j b V V A V k V Z M k h k z a s i g 0 $ ",
"{ W c i x C A A C c C C A K Z r r k b C V V C A C b C C V C A C J L T K Z b b Z V V b l V V c j n A C C C V D Z M b l m v a p a r 5 $ ",
"| ! n j c A A D A V A S V A Z g k A D A C A A A A C S A C C A A A A Z D Z A Z Z A D D D D D S V L L C A F A K F J B M B N h d d r 0 $ ",
"| / L b n A C A C A C S A Z M k l A S A S D A A C A A D C C A A A A Z Z Z F Z Z V C A A C V V V A A b V A V l l l b M A B n v j e 6 & ",
") R L V C D V n V A C A V Z l k b V V C D A C A C C A A C A F A Z Z V A Z A A A C C A S C V C A A A C C F V j j a a v B S A v j e 3 & ",
"P L D S A D A V V A A A T D V c V j j V S A A A A C C C A A A A D A Z A A A A A V C C C A A A D A A A n b v h a y j v N n S b i w 3 : ",
"D A n n V C A V A A A C A C b b V j j V C C V V A A C C A A A C A A A V C A A A C C C C V A A C A A S n v j i p a k b b n S v j r 9 > ",
"R P D A A A A A A A V V A A C A V V c V A C V A C C C A A A A V A A V V V A A C D C A C A A A A A A A b x i i d j b M B n b v d r 3 : ",
"( R L S V V V n A A A V C A A F D C V A D A A D A C A A A A A V A A V A C A A A C A A A A V A A n A n v x x d i j M A B c j i d r 3 : ",
"[ ~ L A V A A A A D A V A A V A D V C D D A V A A A A C A A A A A A A A A A A A A A A A A A A A V A A B b b x b b A J H v i i d r 3 : ",
"{ ( L C C A F A A A A A A C V A V V A A A C C V A C C A V A A A A A Z A A A A A C A A A A V A A A S D S A V n n n A J A v j s h y 3 * ",
"{ ! D c b V A A V A C C A A A A V V A A A V V A S C A A A V A S A A A A A A A A A A A A A A V A A V A A D V C A C A J J N d d h r 3 & ",
"{ R n x c A A A A A A A F A A A T A A A A A V T C A C A A A A A A Z A A A A A Z A A A A A A A A A B A A A A S D A A A A N d h h p 3 * ",
"[ ~ D b c A D A A A D A A A V C A A A A A A A A C A A A A A A A A V V A A A A A A A A A A C A A A A A A A D A K A A A n k d d k a 3 * ",
"[ / P D V A A A n A n n A V V A A A A A A A A A A A A A A A A A A A A S A A A A A A V A V A A A A A A A A D A A A A V j j y d g r 3 * ",
"R T L A A A V C B S V V A A A A A A A A A A C C V A A A A A A V A A A A A V A A V A A A A A A A A A A A A V A A B V n j y t a h r 2 & ",
"F A V n A A C V A A A A A D A A A A A A A A A A A A A A A A A A A A A C C V A A V A A A A A A F Z A A A A V C C J A b j a a a h r 2 : ",
"L D n n A D A A D A B B A A n C A C A C C A A A A A A A A A A A A V C A C C A A A A A V A A A A A A A A C C C S D A b b b k k k e 2 > ",
"_ Q D V C A A V B D B B A S V C C A C C A A A S A A A A A A A A A A A A A A C A V A A A C A A A C C A C A A A S D C V V n b v v e 2 > ",
"[ ( L A A A A A B B n n A S C C C A A A A A A A C A S A A A A A V A A A C V V V V V A A S A A A A A A A A A S A A C A A n N v h e 2 > ",
"[ _ P A n A A A v x j x n n n n C C A A D A C V A A A A A A C A A A A V j V V T A A A A C C C C A A A A A S A A n A A A n v h h e 2 * ",
"( R T V A A M b k a y a N n A A T A A A Z V b C A A A C A A A C A D V b j j n A F C V C S S A V A A B A Z M Z B A F A A b i a k r 3 : ",
"[ Q S V V A b j d d d j v B A J A A Z c k k k V V V V D A n C D D A b b j j B S A V C C A C A A A Z M l l M G A A A A A b d d a y 3 * ",
"| ~ D C K A x a h d a d v H H B J Z l j d d j N A V A L D b b A C C V k a d B B n n V A S A C C Z M k h d k b A F F A n M l g p q 2 & ",
"X.E Z b H H m h d a p p v H B z j g j g d d i d b n A D C x j x j b j a q p v z x b A S D V V j l l d a t a v n A A b v k k p q 3 2 3 ",
"X.E N d v v d s z s s s v N v i y a a k k d a i i k n N b v d d u d s 4 , q h p a x n B n N j a j d a p u u x b B b v h p p w 3 3 3 3 ",
" .~ S d i z z i d z z z v N v x k k h h k g d h j v M N v v k a p s q , = q h h d k v N v v k h d j h k h h x v v N v h g q 3 > $ $ : ",
") Y N u u d i u r s p p u p p p g g f f f p p a a d d p p p p p p w 3 : : 5 f p p p p a a a d p p p p d p s u u u a d p q 3 , = & 3 3 ",
"G m p 5 9 w w q 9 5 5 5 5 5 6 6 3 9 w w 0 9 9 9 6 6 4 5 5 4 9 q p 4 % $ : , 9 9 q 7 6 4 5 5 6 5 5 9 9 9 9 9 4 4 4 4 5 6 > % % * & 2 3 ",
"4 5 3 > < < = < > 2 3 3 2 , , 2 : , 3 - > 4 2 , ; , 3 6 , 3 3 2 : = 3 2 = , 4 ; - ; 1 , , , < < , , 2 4 < , < < < < 2 2 ; = ; 2 3 2 & ",
"m N N N H B k v l M J J B B B B H H z 8 q v H H B A M J M I M e * q H I H B B v d h N H H H J H B B H H B H H H H B H J J A B J l q # ",
"^ ! ^ ) ] ) F F R R ) _ ( ( ) ) ) W F x v W ( ( ] ] ) / E X.E l 4 v / X.` ] ] Y J I E ' ] ` ` ' _ ~ ( ( / / _ _ ] / / / ` X.' / J r # ",
"} ^ W L Q W A A T T R R Q Q Q Y I W S n S W Q Q ! ! / R T / R Z x B R R Y R Q P L U T R ! ! ^ ! ^ W P Y P Q ^ Q R L I I U Y U U Z 7 # ",
"{ ! B x A T A A A A A A A C n x x x x N n A C C A A D D A T D A n n A L A D A A A A L A D D D D A B n n n V D C V c j j l b l l g 3 # ",
") W N u l J A Z V V V V n b x i z i x n n A b n n n V A F A V V n Z A A A A V A n M n Z n n n n b v j b c b n b c j j j y y 8 y w 0 & ",
"_ R M a j D C A A A A D A D V V n N S K F D A A A A A V A V A A A A A A A V V A A A A D D S D B A A A B V A D A C C Z Z k j j y r 0 & ",
"_ ~ D c V A C F A A D A A C A A A B S S A D A A A L L B A A A A D J A A A K D A K A A B A A A D A A A A V A D A A V Z A A k j j r 0 & ",
"[ ^ F A A A A n S A A A C A D D A A V n n V A A A A A A A A A A A A A A A A A A A A A A A A A A A A A A A A A D C A S A A J B j r 3 & ",
"{ ~ P C n A A A C C A C V V V C A A A A A A A A A A A A A A V V A A A Z A A V A A A A V V V A V A A A A A A A C S C B A A B M j r 3 1 ",
"[ ~ F C Z A J A A A C C C V C A B A A A D A A A A V A A A A A T A A A A A A A V A V C C A A C A A A A A A A A A S A A A A A M j r 3 & ",
"R T F A Z A K A A A A A C S A S A V n V A A A A A V A A A A A A A A A D A A A A A A A A A A A A T A A A A A A A D B A S A A n j r 3 : ",
"F D D A A A A A C A A A A A A A A A A V V V A A A A A A A A A A A A C A V A A V C C A C C A A A V V A A A A V A A C C C A A b i r 5 : ",
"D D D A M A J A C C C A A A A A A A A A A A A A A A A A A A V A A V C V V C A A A A A A A V A C V V A A A V A C A C A C n V b j r 3 : ",
"Q P A A Z A A A A A A A A A A A A A A A A A A C A A A A A A A A A A A A A A A A A A A A A A C A A C A A A A A A A A S S V C b j r 3 : ",
"[ ! F A Z A K A A A C C A A C V A A A A A A A A A A A A A A A A A A A A A V A V A A A A A A A A V A A A A A A A A A S C n C c j r 9 & ",
"| ! A b n A A n V A A A V A A A C A A A A C A C V A A V V A A A V A A C A A V A A A A A A A A D C V C C C A C n V D A C n n v i r 3 : ",
"| ! A j c A A A A A A V A A A V V A A A A A V A A A C C A A A A A V A A C A A A A A D A A A A C A A C V V A A C A A A n v v z d r 9 & ",
"{ R A l b A A b A A A A V A A A A C A A A A C C A A A A F A A A A A A A A A A A A A A A A A C V A A C C C A A V D J A x z z i a r 5 : ",
"{ E L n n A A C V A A A A A A A A A C A C V A C A A A A A V A A A A A A C A A A A A A V A V C A A A A S D A A A A A b d u s d a p 5 > ",
"K L A A n A D D A A A A C A A A A A A A C A V V V A A F Z c c Z A A A A A C C A Z A A A A V A A A A A A A A A A A A N i u a d d p 9 : ",
"8 d n A V A A A C A A V A A A V V A A V C V A A A A D J Z j j V F A A A A C A V n V A A D A A A S A A A n V B B A A c i u i h d r 5 & ",
"; 8 b A D D V V C A A A A A A A A A A A A C A A A A A D Z j j c A A A A C A C C A A A A A V V A A A M k x v b b A A n b x v v d r 3 & ",
"3 8 j V n V C A A A A A C A A C A A A C C C A A K Z A J Z j j j V C A A A A A V D D V V b n A A A Z v j d j v b A A A S n B N v r 5 * ",
"k A A A Z A Z V b V A A A A A A C C S A A C A A D Z J A Z Z Z j b V J A D A Z V F n n A B b n A A B v a 8 j j b A A A A A K M i p 3 * ",
"/ ( U A A F F A V A A A A A A A A C A A A A A A Z Z A Z Z J A b y b A A Z Z A A D C n b j j b A A B b k i y a j M A V A A A M d p 3 : ",
"] ) D c V D A Z D D A D Z T A A A A C A D T V A Z Z l l l K A j 7 j A Z b M A D A A J b e 8 V A J A A v i y y h b b V A B b v d r 3 : ",
"] ! V j l A J Z A A A A Z A A A A C C D A A V A A k k j k Z M e 1 j H b k b A A b M L b 6 8 b A A A A n k a s d b n A A b x d d r 3 * ",
"] W n i j M M l n C A V V V V V A A C C C n b c b j d a g M l e ; a H M k k b b j b J m 3 2 j M n b b n n N x x M n n N x a a d r 3 : ",
"{ W v u y d j d b n A B c c j V C n C C b x x j j a d h g l h 0 , p H H l k k i j j H v 7 2 e k v x b n B D S N B b N v d a h h p 5 > ",
"o.W N u p d d k v v M v k k k Z b b v v x z a a d a d p e r e 5 , r G G N v j a j k l k e 7 q e a k v b N B N N N M v d h h h p 0 3 > ",
"o.] H a a d d d h v h k j d j k v v v v z a a d k d a e 2 < 3 , < q h k h v h u y j k k a e q 3 r k k g i z z a h v h h g h w 5 3 > > ",
"Y H z p e p p t t e e e e w e e p t e e e e r r r w w 5 = * : > < 6 e e e p e e e u e w w w 6 , q p f r r e t p p p p r p r 0 > > > > ",
"e w 6 4 4 5 5 3 2 2 4 3 3 3 3 4 4 3 , 3 3 4 5 5 5 4 < < : : > > : , 5 , 4 5 , 3 5 5 4 4 5 4 < * < 9 9 3 3 3 2 2 2 5 3 3 3 9 3 > > > > ",
"O @ @ % % * * % * = = : > > : > : * * * * : > > : * : > > < < < * : , * * = * = , > > : : : = * : > : * > * % % % : : * : > < < < > 3 "
};
